<svg width="32" height="32" viewBox="0 0 100 100" fill="none" xmlns="http://www.w3.org/2000/svg">
  <!-- Cloud Outline -->
  <path
    d="M75 45C75 35.717 67.7614 28.3333 58.75 28.3333C50.75 28.3333 44.1667 34.1667 42.5 41.6667C35.8333 41.6667 30 47.5 30 54.1667C30 60.8333 35.8333 66.6667 42.5 66.6667H70C77.5 66.6667 83.3333 60.8333 83.3333 53.3333C83.3333 48.3333 79.8333 44.1667 75 42.5V45Z"
    fill="#000000"
    stroke="#000000"
    strokeWidth="2"
  />
  
  <!-- Circuit Board Lines -->
  <path
    d="M45 55L55 45L65 55L75 45"
    stroke="#333333"
    strokeWidth="3"
    strokeLinecap="round"
    strokeLinejoin="round"
  />
  
  <!-- Connection Points -->
  <circle cx="45" cy="55" r="3" fill="#333333" />
  <circle cx="55" cy="45" r="3" fill="#333333" />
  <circle cx="65" cy="55" r="3" fill="#333333" />
  <circle cx="75" cy="45" r="3" fill="#333333" />
  
  <!-- Additional Circuit Elements -->
  <path
    d="M50 60L60 50"
    stroke="#333333"
    strokeWidth="2"
    strokeLinecap="round"
  />
  <path
    d="M40 50L50 60"
    stroke="#333333"
    strokeWidth="2"
    strokeLinecap="round"
  />
</svg>
